<svg xmlns="http://www.w3.org/2000/svg" xmlns:xlink="http://www.w3.org/1999/xlink" width="500" zoomAndPan="magnify" viewBox="0 0 375 374.999991" height="500" preserveAspectRatio="xMidYMid meet" version="1.0"><defs><clipPath id="863b1e904c"><path d="M 112.5 114 L 261 114 L 261 261 L 112.5 261 Z M 112.5 114 " clip-rule="nonzero"/></clipPath><clipPath id="ec0296088a"><path d="M 174.148438 124.980469 C 172.125 128.234375 172.125 132.109375 173.835938 135.363281 C 174.777344 137.285156 176.171875 138.785156 178.019531 139.863281 C 183.132812 142.960938 189.796875 141.25 192.898438 135.988281 C 193.515625 135.066406 193.820312 133.964844 194.140625 132.890625 L 213.355469 132.890625 C 213.65625 134.390625 214.121094 135.835938 214.75 137.230469 C 215.742188 139.171875 217.085938 140.824219 218.777344 142.191406 L 205.09375 165.0625 C 201.796875 163.546875 198.332031 162.773438 194.707031 162.738281 C 181.839844 162.738281 171.296875 172.503906 170.0625 185.058594 L 143.460938 185.058594 C 143.148438 183.511719 142.6875 181.960938 142.074219 180.722656 C 141.152344 178.863281 139.75 177.160156 138.203125 175.765625 L 148.121094 159.175781 C 149.183594 159.484375 150.269531 159.636719 151.375 159.640625 C 157.421875 159.640625 162.222656 154.84375 162.222656 148.792969 C 162.191406 147.117188 161.832031 145.515625 161.136719 143.988281 C 159.277344 140.421875 155.558594 137.941406 151.371094 137.941406 C 145.324219 137.941406 140.519531 142.738281 140.519531 148.792969 C 140.550781 150.46875 140.914062 152.070312 141.605469 153.59375 C 142.191406 154.679688 142.914062 155.660156 143.773438 156.542969 L 133.855469 173.128906 C 132.152344 172.511719 130.132812 172.042969 128.121094 172.042969 C 127.105469 172.046875 126.09375 172.148438 125.09375 172.347656 C 124.09375 172.550781 123.125 172.847656 122.183594 173.238281 C 121.242188 173.632812 120.347656 174.109375 119.503906 174.679688 C 118.65625 175.246094 117.875 175.890625 117.152344 176.613281 C 116.433594 177.335938 115.792969 178.121094 115.226562 178.96875 C 114.660156 179.816406 114.183594 180.710938 113.792969 181.65625 C 113.40625 182.597656 113.109375 183.566406 112.914062 184.566406 C 112.714844 185.566406 112.617188 186.578125 112.617188 187.597656 C 112.617188 190.082031 113.234375 192.394531 114.164062 194.417969 C 114.800781 195.722656 115.605469 196.917969 116.578125 197.996094 C 117.550781 199.078125 118.65625 200 119.890625 200.769531 C 121.125 201.535156 122.441406 202.117188 123.839844 202.515625 C 125.238281 202.910156 126.664062 203.105469 128.117188 203.097656 C 130.140625 203.097656 132.144531 202.636719 133.851562 202.011719 L 143.769531 218.597656 C 142.722656 219.617188 141.917969 220.796875 141.351562 222.144531 C 140.789062 223.488281 140.507812 224.890625 140.515625 226.351562 C 140.546875 228.027344 140.90625 229.625 141.601562 231.152344 C 143.304688 234.71875 147.035156 237.199219 151.371094 237.199219 C 157.414062 237.199219 162.21875 232.402344 162.21875 226.351562 C 162.1875 224.675781 161.824219 223.074219 161.132812 221.546875 C 159.269531 217.980469 155.554688 215.5 151.363281 215.5 C 150.277344 215.5 149.039062 215.65625 148.109375 215.964844 L 138.191406 199.375 C 139.601562 198.195312 140.761719 196.804688 141.667969 195.203125 C 142.574219 193.601562 143.171875 191.894531 143.460938 190.078125 L 170.125 190.078125 C 170.4375 193.175781 171.210938 195.972656 172.609375 198.601562 C 176.636719 206.808594 185.007812 212.398438 194.773438 212.398438 C 198.496094 212.398438 202.058594 211.625 205.160156 210.074219 L 218.800781 233.019531 C 215.910156 235.503906 214.003906 238.753906 213.367188 242.324219 L 193.996094 242.167969 C 193.839844 241.394531 193.53125 240.464844 193.21875 239.683594 C 193.0625 239.371094 192.910156 239.222656 192.910156 239.066406 C 189.808594 233.949219 183.140625 232.246094 178.03125 235.191406 C 177.449219 235.535156 176.902344 235.933594 176.394531 236.378906 C 175.886719 236.824219 175.425781 237.316406 175.011719 237.847656 C 174.59375 238.378906 174.230469 238.949219 173.921875 239.546875 C 173.613281 240.148438 173.363281 240.773438 173.167969 241.421875 C 172.976562 242.070312 172.847656 242.730469 172.777344 243.402344 C 172.710938 244.078125 172.703125 244.75 172.761719 245.421875 C 172.820312 246.097656 172.941406 246.757812 173.121094 247.410156 C 173.304688 248.0625 173.546875 248.691406 173.847656 249.296875 C 174.003906 249.609375 174.160156 249.757812 174.160156 250.070312 C 177.257812 255.183594 183.925781 256.890625 189.035156 253.941406 C 191.671875 252.394531 193.371094 249.914062 193.996094 247.121094 L 213.367188 247.433594 C 213.679688 248.984375 214.144531 250.53125 214.753906 251.929688 L 215.21875 252.855469 C 219.554688 260.292969 229.015625 262.625 236.453125 258.289062 C 243.429688 254.105469 246.066406 245.265625 242.5 237.984375 L 242.035156 237.058594 C 240.949219 235.355469 239.710938 233.804688 238.164062 232.726562 L 247.308594 215.675781 C 248.71875 216.078125 250.148438 216.1875 251.605469 215.996094 C 253.058594 215.808594 254.417969 215.339844 255.675781 214.589844 C 256.257812 214.242188 256.804688 213.847656 257.3125 213.402344 C 257.820312 212.957031 258.28125 212.464844 258.695312 211.933594 C 259.113281 211.402344 259.476562 210.832031 259.785156 210.234375 C 260.09375 209.632812 260.34375 209.007812 260.539062 208.359375 C 260.730469 207.710938 260.859375 207.050781 260.929688 206.378906 C 260.996094 205.703125 261.003906 205.03125 260.945312 204.359375 C 260.886719 203.683594 260.765625 203.023438 260.585938 202.371094 C 260.402344 201.71875 260.160156 201.089844 259.859375 200.484375 C 259.703125 200.171875 259.546875 200.023438 259.546875 199.710938 C 256.449219 194.597656 249.78125 192.890625 244.671875 195.839844 C 244.089844 196.183594 243.542969 196.578125 243.035156 197.023438 C 242.527344 197.46875 242.066406 197.960938 241.652344 198.492188 C 241.234375 199.027344 240.871094 199.59375 240.5625 200.195312 C 240.253906 200.796875 240.003906 201.421875 239.808594 202.066406 C 239.617188 202.714844 239.488281 203.375 239.417969 204.050781 C 239.351562 204.722656 239.34375 205.394531 239.402344 206.070312 C 239.460938 206.742188 239.582031 207.40625 239.761719 208.054688 C 239.945312 208.707031 240.1875 209.335938 240.488281 209.941406 C 240.644531 210.253906 240.800781 210.402344 240.800781 210.558594 C 241.417969 211.484375 242.042969 212.421875 242.964844 213.195312 L 233.824219 230.246094 C 232.09375 229.613281 230.304688 229.308594 228.460938 229.335938 C 226.621094 229.363281 224.84375 229.71875 223.128906 230.402344 L 209.492188 207.457031 C 215.535156 203.121094 219.5625 195.839844 219.5625 187.613281 C 219.5625 183.585938 218.640625 179.871094 216.929688 176.609375 C 215.167969 172.964844 212.636719 169.96875 209.335938 167.621094 L 222.972656 144.675781 C 224.6875 145.359375 226.464844 145.714844 228.304688 145.742188 C 230.148438 145.769531 231.9375 145.464844 233.667969 144.832031 L 242.8125 161.882812 C 241.964844 162.660156 241.242188 163.539062 240.644531 164.519531 C 238.621094 167.773438 238.621094 171.648438 240.332031 174.90625 C 241.273438 176.824219 242.667969 178.324219 244.515625 179.402344 C 249.628906 182.5 256.292969 180.789062 259.394531 175.527344 C 261.414062 172.273438 261.414062 168.394531 259.703125 165.140625 C 259.433594 164.582031 259.113281 164.046875 258.75 163.542969 C 258.382812 163.035156 257.976562 162.566406 257.527344 162.132812 C 257.078125 161.699219 256.597656 161.308594 256.082031 160.957031 C 255.5625 160.609375 255.019531 160.308594 254.449219 160.054688 C 253.878906 159.800781 253.292969 159.601562 252.6875 159.449219 C 252.082031 159.300781 251.464844 159.203125 250.84375 159.164062 C 250.222656 159.121094 249.601562 159.132812 248.980469 159.203125 C 248.359375 159.269531 247.75 159.390625 247.152344 159.566406 L 238.007812 142.515625 C 239.554688 141.273438 240.800781 139.878906 241.878906 138.179688 C 244.671875 133.527344 244.671875 127.949219 242.34375 123.453125 C 241.765625 122.085938 240.984375 120.847656 240.003906 119.734375 C 239.023438 118.621094 237.890625 117.691406 236.609375 116.945312 C 229.171875 112.609375 219.714844 115.082031 215.375 122.378906 C 214.304688 124.09375 213.632812 125.953125 213.355469 127.957031 L 193.984375 128.113281 C 193.792969 127.3125 193.535156 126.539062 193.207031 125.789062 C 192.265625 123.867188 190.871094 122.371094 189.023438 121.292969 C 188.414062 120.925781 187.773438 120.625 187.101562 120.386719 C 186.433594 120.148438 185.746094 119.976562 185.039062 119.871094 C 184.335938 119.769531 183.628906 119.734375 182.917969 119.769531 C 182.207031 119.804688 181.507812 119.90625 180.816406 120.082031 C 180.125 120.253906 179.460938 120.492188 178.816406 120.792969 C 178.171875 121.097656 177.566406 121.460938 176.992188 121.886719 C 176.421875 122.308594 175.894531 122.78125 175.417969 123.308594 C 174.9375 123.835938 174.515625 124.402344 174.148438 125.011719 Z M 145.480469 148.847656 C 145.480469 147.300781 146.097656 145.75 147.183594 144.664062 C 148.269531 143.578125 149.820312 142.960938 151.371094 142.960938 C 153.691406 142.960938 155.703125 144.203125 156.640625 146.214844 C 157.101562 146.988281 157.257812 147.917969 157.257812 148.847656 C 157.257812 149.234375 157.21875 149.617188 157.144531 149.996094 C 157.070312 150.378906 156.957031 150.746094 156.808594 151.101562 C 156.660156 151.460938 156.480469 151.796875 156.265625 152.121094 C 156.050781 152.441406 155.804688 152.738281 155.53125 153.011719 C 155.257812 153.285156 154.960938 153.53125 154.640625 153.746094 C 154.320312 153.960938 153.980469 154.140625 153.621094 154.289062 C 153.265625 154.4375 152.898438 154.550781 152.519531 154.625 C 152.136719 154.699219 151.753906 154.738281 151.371094 154.738281 C 149.046875 154.738281 147.035156 153.496094 146.097656 151.484375 C 145.636719 150.710938 145.480469 149.78125 145.480469 148.847656 Z M 151.375 220.519531 C 153.699219 220.519531 155.710938 221.761719 156.644531 223.773438 C 157.109375 224.546875 157.265625 225.476562 157.265625 226.40625 C 157.265625 226.792969 157.226562 227.175781 157.148438 227.554688 C 157.074219 227.933594 156.960938 228.304688 156.816406 228.660156 C 156.667969 229.019531 156.484375 229.355469 156.269531 229.679688 C 156.054688 230 155.8125 230.296875 155.539062 230.570312 C 155.265625 230.84375 154.96875 231.089844 154.644531 231.304688 C 154.324219 231.519531 153.984375 231.699219 153.628906 231.847656 C 153.269531 231.996094 152.902344 232.109375 152.523438 232.183594 C 152.144531 232.257812 151.761719 232.296875 151.375 232.296875 C 149.050781 232.296875 147.039062 231.054688 146.105469 229.042969 C 145.640625 228.269531 145.484375 227.339844 145.484375 226.40625 C 145.484375 224.859375 146.105469 223.308594 147.191406 222.222656 C 148.277344 221.136719 149.824219 220.519531 151.375 220.519531 Z M 178.5 247.796875 C 178.5 247.640625 178.34375 247.488281 178.34375 247.488281 C 176.957031 244.695312 178.03125 241.441406 180.667969 239.742188 C 182.054688 238.96875 183.554688 238.65625 185.164062 239.125 C 186.6875 239.550781 187.875 240.429688 188.730469 241.757812 C 188.730469 241.914062 188.886719 242.070312 188.886719 242.070312 C 190.273438 244.863281 189.199219 248.273438 186.5625 249.816406 C 183.769531 251.519531 180.054688 250.589844 178.5 247.792969 Z M 236.3125 240.515625 C 236.46875 240.671875 236.46875 240.828125 236.625 241.132812 C 238.648438 245.320312 237.246094 250.277344 233.160156 252.601562 C 232.660156 252.894531 232.136719 253.136719 231.589844 253.328125 C 231.042969 253.519531 230.484375 253.65625 229.910156 253.738281 C 229.335938 253.820312 228.761719 253.84375 228.183594 253.8125 C 227.605469 253.78125 227.035156 253.695312 226.472656 253.550781 C 225.910156 253.40625 225.371094 253.210938 224.847656 252.960938 C 224.324219 252.707031 223.832031 252.410156 223.367188 252.0625 C 222.90625 251.714844 222.480469 251.328125 222.09375 250.894531 C 221.703125 250.464844 221.363281 250 221.066406 249.503906 C 220.910156 249.347656 220.910156 249.191406 220.753906 248.886719 C 218.730469 244.699219 220.136719 239.742188 224.222656 237.417969 C 226.246094 236.175781 228.558594 235.871094 230.886719 236.492188 C 233.214844 237.117188 235.070312 238.515625 236.320312 240.523438 Z M 245.15625 208.277344 C 245.15625 208.121094 245 207.964844 245 207.964844 C 243.613281 205.171875 244.6875 201.761719 247.324219 200.21875 C 248.710938 199.445312 250.214844 199.132812 251.820312 199.601562 C 253.34375 200.027344 254.53125 200.90625 255.386719 202.238281 C 255.386719 202.394531 255.542969 202.550781 255.542969 202.550781 C 256.929688 205.339844 255.855469 208.59375 253.21875 210.292969 C 252.890625 210.496094 252.542969 210.660156 252.179688 210.792969 C 251.816406 210.925781 251.445312 211.019531 251.0625 211.078125 C 250.679688 211.136719 250.292969 211.15625 249.910156 211.140625 C 249.523438 211.121094 249.140625 211.066406 248.765625 210.972656 C 248.390625 210.878906 248.03125 210.746094 247.679688 210.582031 C 247.332031 210.414062 247 210.21875 246.691406 209.984375 C 246.382812 209.753906 246.097656 209.496094 245.839844 209.207031 C 245.582031 208.917969 245.355469 208.609375 245.15625 208.277344 Z M 128.117188 196.429688 C 124.648438 196.429688 121.757812 194.566406 120.210938 191.46875 C 119.59375 190.226562 119.285156 188.984375 119.285156 187.597656 C 119.285156 182.800781 123.3125 178.753906 128.128906 178.753906 C 131.597656 178.753906 134.488281 180.613281 136.035156 183.710938 C 136.652344 184.957031 136.960938 186.199219 136.960938 187.585938 C 136.960938 189.910156 136.035156 192.238281 134.324219 193.785156 C 132.777344 195.492188 130.453125 196.421875 128.121094 196.421875 Z M 208.714844 187.585938 C 208.714844 191.308594 207.328125 194.867188 204.6875 197.503906 C 202.046875 200.140625 198.484375 201.53125 194.769531 201.53125 C 193.46875 201.527344 192.191406 201.347656 190.9375 200.992188 C 189.6875 200.632812 188.507812 200.113281 187.398438 199.429688 C 186.289062 198.746094 185.296875 197.921875 184.414062 196.964844 C 183.535156 196.003906 182.800781 194.945312 182.214844 193.78125 C 181.269531 191.820312 180.804688 189.753906 180.824219 187.578125 C 180.824219 183.855469 182.210938 180.296875 184.851562 177.660156 C 187.492188 175.027344 191.054688 173.632812 194.769531 173.632812 C 196.070312 173.636719 197.347656 173.816406 198.601562 174.171875 C 199.851562 174.53125 201.03125 175.050781 202.140625 175.734375 C 203.25 176.417969 204.242188 177.242188 205.121094 178.199219 C 206.003906 179.160156 206.738281 180.222656 207.324219 181.382812 C 208.246094 183.40625 208.710938 185.410156 208.710938 187.585938 Z M 253.203125 164.957031 C 254.179688 165.59375 254.953125 166.421875 255.527344 167.4375 C 256.449219 169.296875 256.300781 171.308594 255.371094 173.015625 C 255.171875 173.347656 254.945312 173.65625 254.6875 173.945312 C 254.429688 174.234375 254.144531 174.492188 253.835938 174.722656 C 253.527344 174.953125 253.195312 175.152344 252.847656 175.320312 C 252.496094 175.484375 252.136719 175.613281 251.761719 175.707031 C 251.386719 175.800781 251.003906 175.859375 250.617188 175.875 C 250.230469 175.894531 249.847656 175.875 249.464844 175.816406 C 249.082031 175.757812 248.710938 175.664062 248.347656 175.53125 C 247.984375 175.398438 247.636719 175.234375 247.308594 175.03125 C 246.332031 174.394531 245.554688 173.566406 244.984375 172.550781 C 244.058594 170.691406 244.210938 168.679688 245.140625 166.972656 C 245.335938 166.640625 245.5625 166.332031 245.820312 166.042969 C 246.082031 165.757812 246.363281 165.496094 246.675781 165.265625 C 246.984375 165.035156 247.3125 164.835938 247.664062 164.667969 C 248.011719 164.503906 248.375 164.375 248.75 164.28125 C 249.125 164.1875 249.503906 164.128906 249.890625 164.113281 C 250.277344 164.09375 250.660156 164.113281 251.042969 164.171875 C 251.425781 164.230469 251.800781 164.324219 252.164062 164.457031 C 252.527344 164.589844 252.871094 164.757812 253.203125 164.957031 Z M 233.203125 122.648438 C 234.753906 123.574219 235.839844 124.816406 236.671875 126.371094 C 237.011719 127.023438 237.257812 127.707031 237.417969 128.421875 C 237.582031 129.140625 237.648438 129.863281 237.621094 130.597656 C 237.59375 131.332031 237.472656 132.046875 237.257812 132.75 C 237.046875 133.453125 236.746094 134.117188 236.359375 134.742188 C 236.0625 135.238281 235.722656 135.703125 235.335938 136.132812 C 234.949219 136.5625 234.523438 136.953125 234.058594 137.300781 C 233.59375 137.648438 233.101562 137.945312 232.578125 138.195312 C 232.058594 138.445312 231.515625 138.644531 230.953125 138.789062 C 230.394531 138.929688 229.824219 139.019531 229.246094 139.050781 C 228.667969 139.082031 228.089844 139.058594 227.519531 138.976562 C 226.945312 138.894531 226.382812 138.757812 225.835938 138.566406 C 225.289062 138.375 224.769531 138.132812 224.269531 137.839844 C 222.71875 136.914062 221.632812 135.671875 220.800781 134.117188 C 219.414062 131.480469 219.558594 128.382812 221.113281 125.746094 C 221.410156 125.25 221.75 124.785156 222.136719 124.355469 C 222.527344 123.925781 222.953125 123.535156 223.414062 123.1875 C 223.878906 122.839844 224.371094 122.542969 224.894531 122.292969 C 225.417969 122.042969 225.957031 121.84375 226.519531 121.703125 C 227.082031 121.558594 227.648438 121.46875 228.226562 121.4375 C 228.808594 121.40625 229.382812 121.429688 229.957031 121.511719 C 230.53125 121.59375 231.089844 121.730469 231.636719 121.921875 C 232.183594 122.113281 232.707031 122.355469 233.203125 122.648438 Z M 182.054688 124.816406 C 183.601562 124.355469 185.152344 124.660156 186.550781 125.433594 C 187.527344 126.074219 188.300781 126.898438 188.875 127.914062 C 189.796875 129.777344 189.648438 131.789062 188.71875 133.492188 C 187.945312 134.878906 186.695312 135.816406 185.152344 136.128906 C 183.601562 136.589844 182.054688 136.285156 180.65625 135.507812 C 179.679688 134.871094 178.90625 134.046875 178.332031 133.03125 C 177.40625 131.167969 177.558594 129.15625 178.488281 127.453125 C 179.34375 126.121094 180.53125 125.242188 182.054688 124.816406 Z M 182.054688 124.816406 " clip-rule="nonzero"/></clipPath></defs><g clip-path="url(#863b1e904c)"><g clip-path="url(#ec0296088a)"><path fill="#081225" d="M 112.617188 112.609375 L 112.617188 262.5 L 261.414062 262.5 L 261.414062 112.609375 Z M 112.617188 112.609375 " fill-opacity="1" fill-rule="nonzero"/></g></g></svg>