<svg xmlns="http://www.w3.org/2000/svg" xmlns:xlink="http://www.w3.org/1999/xlink" width="500" zoomAndPan="magnify" viewBox="0 0 375 374.999991" height="500" preserveAspectRatio="xMidYMid meet" version="1.0"><defs><clipPath id="555ab81548"><path d="M 113 130 L 246 130 L 246 262.3125 L 113 262.3125 Z M 113 130 " clip-rule="nonzero"/></clipPath><clipPath id="164d9b56d6"><path d="M 193 113.0625 L 262 113.0625 L 262 180 L 193 180 Z M 193 113.0625 " clip-rule="nonzero"/></clipPath></defs><path fill="#081225" d="M 215.3125 170.457031 L 220.191406 170.457031 C 217.75 161.957031 211.132812 155.207031 202.65625 152.761719 L 202.65625 157.652344 C 208.460938 159.863281 213.105469 164.519531 215.3125 170.457031 Z M 215.3125 170.457031 " fill-opacity="1" fill-rule="nonzero"/><path fill="#081225" d="M 179.3125 219.355469 C 190.925781 219.355469 200.796875 211.4375 203.933594 200.726562 L 199.054688 200.726562 C 196.152344 208.875 188.488281 214.695312 179.429688 214.695312 C 167.933594 214.695312 158.527344 205.265625 158.527344 193.742188 C 158.527344 184.660156 164.332031 176.859375 172.460938 174.066406 L 172.460938 169.175781 C 161.660156 172.203125 153.765625 182.097656 153.765625 193.742188 C 153.765625 207.828125 165.261719 219.355469 179.3125 219.355469 Z M 179.3125 219.355469 " fill-opacity="1" fill-rule="nonzero"/><g clip-path="url(#555ab81548)"><path fill="#081225" d="M 113.46875 215.164062 L 117.648438 226.339844 C 118.113281 227.503906 118.925781 228.433594 120.089844 228.898438 C 121.25 229.367188 122.527344 229.480469 123.6875 229.015625 L 134.71875 224.707031 C 138.902344 230.761719 144.125 235.886719 150.28125 239.726562 L 145.636719 251.484375 C 144.707031 253.8125 145.867188 256.609375 148.191406 257.539062 L 159.105469 261.964844 C 159.6875 262.195312 160.269531 262.3125 160.847656 262.3125 C 161.429688 262.3125 162.125 262.195312 162.707031 261.964844 C 163.867188 261.496094 164.796875 260.566406 165.261719 259.402344 L 170.140625 247.410156 C 176.757812 248.574219 183.726562 248.457031 190.230469 247.0625 L 195.453125 258.9375 C 195.917969 260.101562 196.847656 260.914062 198.007812 261.382812 C 199.171875 261.847656 200.449219 261.847656 201.609375 261.265625 L 212.410156 256.492188 C 214.730469 255.445312 215.777344 252.648438 214.730469 250.320312 L 209.621094 238.796875 C 214.847656 235.1875 219.609375 230.644531 223.210938 225.40625 L 234.242188 229.949219 C 235.402344 230.414062 236.679688 230.414062 237.839844 229.949219 C 239.003906 229.480469 239.929688 228.550781 240.394531 227.386719 L 244.808594 216.328125 C 245.738281 213.882812 244.578125 211.203125 242.253906 210.273438 L 232.035156 206.082031 C 232.964844 202.007812 233.429688 197.816406 233.429688 193.625 C 233.429688 192.34375 232.382812 191.296875 231.105469 191.296875 C 230.875 191.296875 230.757812 191.296875 230.523438 191.414062 C 230.410156 191.414062 230.410156 191.414062 230.292969 191.414062 L 181.636719 191.414062 L 181.636719 141.46875 C 181.636719 140.1875 180.589844 139.140625 179.3125 139.140625 C 175.015625 139.140625 170.71875 139.605469 166.539062 140.652344 L 163.289062 133.085938 C 162.824219 131.921875 161.894531 131.109375 160.734375 130.640625 C 159.570312 130.175781 158.292969 130.175781 157.132812 130.757812 L 146.214844 135.53125 C 143.894531 136.578125 142.847656 139.375 143.894531 141.703125 L 147.378906 149.617188 C 141.570312 153.925781 136.578125 159.398438 132.863281 165.566406 L 124.269531 162.074219 C 123.109375 161.609375 121.832031 161.609375 120.667969 162.074219 C 119.507812 162.539062 118.578125 163.472656 118.113281 164.636719 L 113.703125 175.695312 C 112.773438 178.023438 113.933594 180.820312 116.257812 181.75 L 125.664062 185.59375 C 125.3125 188.269531 125.082031 190.945312 125.082031 193.625 C 125.082031 197.464844 125.429688 201.425781 126.242188 205.152344 L 116.023438 209.109375 C 113.703125 210.15625 112.539062 212.835938 113.46875 215.164062 Z M 129.960938 208.875 C 131.003906 208.410156 131.699219 207.246094 131.351562 206.082031 C 130.308594 202.125 129.84375 197.933594 129.84375 193.742188 C 129.84375 190.714844 130.074219 187.6875 130.65625 184.660156 C 130.886719 183.613281 130.308594 182.449219 129.261719 182.097656 L 118.113281 177.558594 L 122.527344 166.5 L 132.976562 170.804688 C 134.023438 171.273438 135.300781 170.804688 135.882812 169.757812 C 139.597656 162.890625 145.054688 156.835938 151.558594 152.414062 C 152.488281 151.832031 152.835938 150.550781 152.371094 149.5 L 148.191406 139.839844 L 158.992188 135.066406 L 163.054688 144.378906 C 163.519531 145.425781 164.679688 146.007812 165.84375 145.660156 C 169.441406 144.613281 173.160156 144.03125 176.992188 143.914062 L 176.992188 193.742188 C 176.992188 195.023438 178.035156 196.070312 179.3125 196.070312 L 228.78125 196.070312 C 228.667969 199.796875 228.085938 203.402344 227.15625 206.898438 C 226.808594 208.0625 227.390625 209.226562 228.550781 209.691406 L 240.628906 214.695312 L 236.214844 225.757812 L 223.441406 220.519531 C 222.394531 220.050781 221.234375 220.519531 220.652344 221.332031 C 216.820312 227.152344 211.597656 232.277344 205.675781 236 C 204.746094 236.582031 204.28125 237.863281 204.746094 238.914062 L 210.550781 252.300781 L 199.75 257.074219 L 193.828125 243.453125 C 193.363281 242.40625 192.203125 241.824219 191.15625 242.171875 C 184.074219 243.917969 176.410156 244.035156 169.210938 242.519531 C 168.046875 242.289062 167.003906 242.871094 166.539062 243.917969 L 160.847656 257.773438 L 149.933594 253.230469 L 155.390625 239.726562 C 155.855469 238.679688 155.390625 237.398438 154.460938 236.816406 C 147.726562 232.859375 141.921875 227.269531 137.738281 220.632812 C 137.160156 219.703125 135.996094 219.355469 134.953125 219.703125 L 122.179688 224.59375 L 117.765625 213.53125 Z M 129.960938 208.875 " fill-opacity="1" fill-rule="nonzero"/></g><g clip-path="url(#164d9b56d6)"><path fill="#081225" d="M 195.570312 179.769531 L 246.667969 179.769531 C 246.898438 179.769531 247.015625 179.769531 247.246094 179.65625 C 247.363281 179.65625 247.363281 179.65625 247.480469 179.65625 C 248.757812 179.65625 249.800781 178.605469 249.800781 177.324219 C 249.800781 174.996094 249.6875 172.554688 249.335938 170.222656 L 258.859375 166.5 C 261.296875 165.566406 262.460938 162.890625 261.53125 160.445312 L 257.234375 149.269531 C 256.769531 148.105469 255.957031 147.171875 254.796875 146.707031 C 253.632812 146.242188 252.355469 146.125 251.195312 146.589844 L 242.601562 149.96875 C 238.539062 142.867188 232.847656 136.695312 226.113281 132.039062 L 229.363281 124.007812 C 230.292969 121.675781 229.132812 118.882812 226.808594 117.953125 L 215.894531 113.527344 C 214.730469 113.0625 213.453125 113.0625 212.292969 113.527344 C 211.132812 113.992188 210.203125 114.925781 209.738281 116.089844 L 206.71875 123.65625 C 203.117188 122.957031 199.402344 122.492188 195.6875 122.492188 C 194.410156 122.492188 193.363281 123.539062 193.363281 124.820312 L 193.363281 177.441406 C 193.25 178.722656 194.292969 179.769531 195.570312 179.769531 Z M 207.414062 128.894531 C 208.578125 129.128906 209.738281 128.546875 210.085938 127.5 L 214.035156 118.070312 L 224.949219 122.609375 L 221.003906 132.386719 C 220.539062 133.4375 221.003906 134.601562 221.933594 135.183594 C 229.246094 139.839844 235.285156 146.359375 239.351562 154.160156 C 239.929688 155.207031 241.09375 155.671875 242.253906 155.207031 L 252.820312 151.132812 L 257.117188 162.308594 L 245.855469 166.617188 C 244.808594 166.964844 244.226562 168.128906 244.34375 169.175781 C 244.691406 171.15625 244.808594 173.019531 244.925781 175.113281 L 197.894531 175.113281 L 197.894531 127.5 C 201.144531 127.730469 204.398438 128.195312 207.414062 128.894531 Z M 207.414062 128.894531 " fill-opacity="1" fill-rule="nonzero"/></g></svg>