<svg xmlns="http://www.w3.org/2000/svg" xmlns:xlink="http://www.w3.org/1999/xlink" width="500" zoomAndPan="magnify" viewBox="0 0 375 374.999991" height="500" preserveAspectRatio="xMidYMid meet" version="1.0"><path fill="#081225" d="M 199.832031 187.214844 L 237.675781 149.421875 C 244.363281 146.195312 250.042969 140.507812 255.511719 131.527344 C 255.636719 131.324219 255.722656 131.105469 255.773438 130.875 C 255.824219 130.640625 255.835938 130.40625 255.808594 130.171875 C 255.777344 129.933594 255.710938 129.710938 255.609375 129.496094 C 255.503906 129.28125 255.367188 129.09375 255.199219 128.925781 L 246.550781 120.289062 C 246.382812 120.121094 246.191406 119.984375 245.976562 119.882812 C 245.765625 119.777344 245.539062 119.710938 245.304688 119.683594 C 245.066406 119.65625 244.832031 119.664062 244.597656 119.714844 C 244.367188 119.765625 244.148438 119.851562 243.945312 119.976562 C 234.953125 125.441406 229.257812 131.113281 226.027344 137.789062 L 188.28125 175.484375 L 161.882812 148.632812 C 159.890625 146.667969 158.917969 144 159.289062 141.480469 C 160.304688 134.222656 157.308594 127.089844 151.273438 122.402344 C 145.214844 117.695312 137.535156 116.535156 130.742188 119.304688 C 130.582031 119.371094 130.429688 119.457031 130.289062 119.558594 C 130.148438 119.664062 130.019531 119.78125 129.910156 119.914062 C 129.796875 120.050781 129.703125 120.195312 129.628906 120.351562 C 129.554688 120.511719 129.496094 120.675781 129.460938 120.84375 C 129.429688 121.015625 129.414062 121.1875 129.421875 121.363281 C 129.429688 121.539062 129.457031 121.707031 129.507812 121.875 C 129.558594 122.042969 129.625 122.203125 129.714844 122.351562 C 129.804688 122.5 129.910156 122.640625 130.035156 122.761719 L 138.636719 131.441406 L 136.757812 137.148438 L 130.988281 139.050781 L 122.328125 130.40625 C 122.207031 130.285156 122.070312 130.175781 121.917969 130.085938 C 121.769531 129.996094 121.613281 129.925781 121.445312 129.875 C 121.277344 129.824219 121.105469 129.796875 120.933594 129.789062 C 120.757812 129.777344 120.585938 129.792969 120.414062 129.824219 C 120.242188 129.859375 120.078125 129.914062 119.917969 129.988281 C 119.761719 130.0625 119.613281 130.15625 119.480469 130.265625 C 119.34375 130.375 119.226562 130.5 119.121094 130.640625 C 119.015625 130.78125 118.929688 130.933594 118.863281 131.09375 C 112.613281 144.78125 125.875 161.960938 140.582031 159.628906 C 141.984375 159.480469 143.351562 159.632812 144.6875 160.09375 C 146.019531 160.550781 147.191406 161.269531 148.207031 162.25 C 155.769531 169.789062 165.164062 179.1875 174.859375 188.890625 L 167.347656 196.390625 L 162.363281 191.414062 C 162.25 191.300781 162.125 191.199219 161.988281 191.117188 C 161.851562 191.03125 161.707031 190.960938 161.550781 190.910156 C 161.398438 190.855469 161.242188 190.820312 161.082031 190.804688 C 160.921875 190.789062 160.761719 190.789062 160.601562 190.808594 C 160.441406 190.828125 160.285156 190.867188 160.132812 190.921875 C 159.984375 190.976562 159.839844 191.046875 159.703125 191.136719 C 159.570312 191.222656 159.445312 191.324219 159.332031 191.441406 C 159.21875 191.558594 159.121094 191.683594 159.039062 191.824219 L 152.6875 202.394531 L 125.164062 229.882812 C 124.496094 230.546875 123.898438 231.273438 123.375 232.054688 C 122.851562 232.835938 122.410156 233.664062 122.046875 234.535156 C 121.6875 235.402344 121.414062 236.300781 121.230469 237.222656 C 121.046875 238.144531 120.953125 239.078125 120.953125 240.019531 C 120.953125 240.960938 121.046875 241.894531 121.230469 242.816406 C 121.414062 243.742188 121.683594 244.636719 122.046875 245.507812 C 122.40625 246.375 122.847656 247.203125 123.371094 247.984375 C 123.894531 248.769531 124.492188 249.492188 125.15625 250.160156 C 125.824219 250.824219 126.550781 251.417969 127.332031 251.941406 C 128.117188 252.464844 128.945312 252.90625 129.816406 253.265625 C 130.6875 253.625 131.585938 253.898438 132.507812 254.082031 C 133.433594 254.265625 134.367188 254.355469 135.308594 254.355469 C 136.253906 254.355469 137.1875 254.265625 138.109375 254.082031 C 139.035156 253.894531 139.933594 253.625 140.804688 253.261719 C 141.675781 252.902344 142.5 252.460938 143.285156 251.9375 C 144.070312 251.414062 144.792969 250.820312 145.460938 250.152344 L 172.984375 222.664062 L 183.570312 216.320312 C 183.707031 216.238281 183.835938 216.140625 183.953125 216.027344 C 184.070312 215.917969 184.171875 215.792969 184.257812 215.65625 C 184.347656 215.523438 184.417969 215.378906 184.472656 215.226562 C 184.527344 215.078125 184.566406 214.921875 184.585938 214.761719 C 184.605469 214.601562 184.605469 214.441406 184.589844 214.28125 C 184.574219 214.121094 184.539062 213.964844 184.484375 213.8125 C 184.433594 213.660156 184.363281 213.515625 184.277344 213.378906 C 184.191406 213.242188 184.09375 213.117188 183.980469 213 L 178.996094 208.023438 L 186.496094 200.535156 C 196.179688 210.222656 205.5625 219.609375 213.121094 227.144531 C 214.101562 228.144531 214.820312 229.308594 215.277344 230.636719 C 215.734375 231.960938 215.878906 233.324219 215.71875 234.714844 C 213.804688 246.421875 224.890625 258.285156 236.703125 257.984375 C 239.335938 257.984375 241.875 257.484375 244.308594 256.476562 C 244.472656 256.410156 244.621094 256.328125 244.761719 256.222656 C 244.902344 256.121094 245.03125 256 245.140625 255.863281 C 245.25 255.730469 245.34375 255.582031 245.417969 255.425781 C 245.496094 255.269531 245.550781 255.105469 245.582031 254.933594 C 245.617188 254.761719 245.632812 254.589844 245.621094 254.414062 C 245.613281 254.238281 245.585938 254.070312 245.535156 253.902344 C 245.484375 253.734375 245.414062 253.574219 245.324219 253.425781 C 245.234375 253.277344 245.125 253.140625 245.003906 253.015625 L 236.351562 244.375 L 238.28125 238.640625 L 244.023438 236.734375 L 252.648438 245.375 C 252.769531 245.5 252.90625 245.605469 253.058594 245.695312 C 253.207031 245.785156 253.367188 245.855469 253.535156 245.90625 C 253.703125 245.957031 253.871094 245.988281 254.046875 245.996094 C 254.222656 246.003906 254.394531 245.992188 254.566406 245.957031 C 254.738281 245.925781 254.902344 245.871094 255.0625 245.796875 C 255.21875 245.71875 255.367188 245.628906 255.503906 245.515625 C 255.636719 245.40625 255.757812 245.28125 255.859375 245.140625 C 255.964844 245 256.050781 244.847656 256.117188 244.6875 C 262.359375 230.75 249.027344 213.613281 233.972656 216.164062 C 231.410156 216.488281 228.804688 215.527344 226.691406 213.394531 Z M 244.742188 124.480469 L 251 130.734375 C 246.542969 137.722656 241.988281 142.34375 236.832031 145.105469 L 230.347656 138.632812 C 233.113281 133.484375 237.742188 128.933594 244.742188 124.480469 Z M 227.757812 142.058594 L 233.398438 147.691406 L 196.859375 184.1875 C 194.972656 182.273438 192.722656 179.984375 191.261719 178.507812 Z M 142.457031 247.152344 C 132.789062 256.3125 118.996094 242.535156 128.167969 232.882812 L 154.375 206.707031 L 168.664062 220.976562 Z M 179.050781 214.082031 L 172 218.304688 L 157.050781 203.378906 L 161.285156 196.335938 Z M 175.996094 205.019531 L 170.355469 199.386719 L 177.859375 191.894531 C 179.507812 193.539062 181.824219 195.863281 183.488281 197.539062 Z M 223.792969 216.496094 C 226.71875 219.457031 230.621094 220.871094 234.535156 220.371094 C 245.019531 218.492188 255.320312 229.546875 253.132812 239.847656 L 246.105469 232.808594 C 245.824219 232.523438 245.484375 232.335938 245.09375 232.242188 C 244.703125 232.152344 244.316406 232.167969 243.933594 232.292969 L 235.933594 234.945312 C 235.265625 235.167969 234.816406 235.613281 234.589844 236.28125 L 231.902344 244.269531 C 231.773438 244.652344 231.757812 245.039062 231.847656 245.429688 C 231.941406 245.824219 232.128906 246.160156 232.414062 246.445312 L 239.472656 253.492188 C 229.289062 255.65625 218.214844 245.53125 219.941406 235.203125 C 220.054688 234.199219 220.058594 233.191406 219.949219 232.183594 C 219.839844 231.179688 219.617188 230.195312 219.289062 229.238281 C 218.957031 228.28125 218.527344 227.375 217.992188 226.511719 C 217.457031 225.652344 216.835938 224.863281 216.121094 224.140625 C 204.835938 212.902344 168.03125 176.019531 151.199219 159.238281 C 150.472656 158.53125 149.675781 157.914062 148.808594 157.382812 C 147.945312 156.851562 147.035156 156.421875 146.074219 156.09375 C 145.117188 155.761719 144.132812 155.539062 143.125 155.425781 C 142.113281 155.308594 141.105469 155.304688 140.097656 155.414062 C 129.859375 157.210938 119.65625 146.011719 121.84375 135.925781 L 128.90625 142.976562 C 129.191406 143.261719 129.527344 143.449219 129.917969 143.542969 C 130.308594 143.636719 130.695312 143.617188 131.078125 143.492188 L 139.105469 140.839844 C 139.785156 140.617188 140.234375 140.167969 140.457031 139.492188 L 143.078125 131.535156 C 143.203125 131.160156 143.222656 130.773438 143.128906 130.386719 C 143.039062 130 142.851562 129.664062 142.574219 129.378906 L 135.5625 122.308594 C 145.832031 120.179688 156.960938 130.441406 155.082031 140.878906 C 154.519531 144.714844 155.945312 148.746094 158.875 151.628906 Z M 223.792969 216.496094 " fill-opacity="1" fill-rule="nonzero"/><path fill="#081225" d="M 152.761719 219.589844 L 133.195312 239.132812 C 131.242188 241.097656 134.222656 244.089844 136.199219 242.132812 L 155.765625 222.589844 C 157.714844 220.628906 154.738281 217.632812 152.761719 219.589844 Z M 152.761719 219.589844 " fill-opacity="1" fill-rule="nonzero"/></svg>