<svg xmlns="http://www.w3.org/2000/svg" xmlns:xlink="http://www.w3.org/1999/xlink" width="500" zoomAndPan="magnify" viewBox="0 0 375 374.999991" height="500" preserveAspectRatio="xMidYMid meet" version="1.0"><defs><clipPath id="241165dc74"><path d="M 112.5 112.5 L 262 112.5 L 262 262 L 112.5 262 Z M 112.5 112.5 " clip-rule="nonzero"/></clipPath></defs><g clip-path="url(#241165dc74)"><path fill="#081225" d="M 182.792969 112.660156 C 181.226562 112.648438 179.871094 113.777344 179.59375 115.320312 L 177.820312 125.011719 C 176.300781 125.507812 174.835938 126.101562 173.390625 126.808594 L 165.433594 121.066406 C 164.152344 120.140625 162.382812 120.269531 161.269531 121.394531 L 154.347656 128.203125 C 153.230469 129.316406 153.066406 131.0625 153.964844 132.355469 L 159.558594 140.453125 C 158.824219 141.882812 158.207031 143.351562 157.710938 144.855469 L 148.003906 146.425781 C 146.449219 146.667969 145.296875 148.007812 145.285156 149.601562 L 145.222656 159.320312 C 145.207031 160.890625 146.335938 162.246094 147.878906 162.523438 L 157.609375 164.296875 C 158.089844 165.800781 158.699219 167.257812 159.40625 168.6875 L 153.625 176.683594 C 152.699219 177.964844 152.828125 179.734375 153.941406 180.859375 L 160.773438 187.769531 C 161.875 188.882812 163.621094 189.050781 164.914062 188.152344 L 173.113281 182.507812 C 174.53125 183.226562 175.984375 183.824219 177.480469 184.316406 L 179.148438 194.136719 C 179.414062 195.691406 180.746094 196.832031 182.328125 196.84375 L 192.03125 196.894531 C 193.628906 196.90625 194.980469 195.757812 195.246094 194.199219 L 196.90625 184.390625 C 198.386719 183.910156 199.828125 183.328125 201.234375 182.621094 L 209.371094 188.402344 C 210.660156 189.316406 212.40625 189.164062 213.523438 188.0625 L 220.445312 181.242188 C 221.570312 180.128906 221.722656 178.355469 220.796875 177.050781 L 215.027344 168.953125 C 215.75 167.546875 216.355469 166.117188 216.851562 164.648438 L 226.707031 162.980469 C 228.253906 162.714844 229.390625 161.371094 229.402344 159.789062 L 229.453125 150.082031 C 229.46875 148.5 228.328125 147.148438 226.757812 146.882812 L 216.988281 145.222656 C 216.507812 143.730469 215.914062 142.273438 215.21875 140.84375 L 220.964844 132.734375 C 221.886719 131.453125 221.746094 129.707031 220.632812 128.582031 L 213.800781 121.671875 C 212.6875 120.558594 210.914062 120.394531 209.625 121.316406 L 201.601562 127.011719 C 200.183594 126.292969 198.742188 125.683594 197.257812 125.191406 L 195.691406 115.445312 C 195.4375 113.875 194.097656 112.726562 192.5 112.710938 Z M 185.476562 119.152344 L 189.730469 119.179688 L 191.132812 127.9375 C 191.335938 129.214844 192.285156 130.238281 193.527344 130.554688 C 195.90625 131.164062 198.195312 132.136719 200.347656 133.441406 C 201.449219 134.125 202.851562 134.074219 203.902344 133.328125 L 211.128906 128.203125 L 214.117188 131.214844 L 208.914062 138.503906 C 208.179688 139.554688 208.117188 140.933594 208.777344 142.035156 C 210.054688 144.199219 210.992188 146.503906 211.546875 148.867188 C 211.851562 150.132812 212.875 151.097656 214.167969 151.324219 L 222.960938 152.804688 L 222.9375 157.042969 L 214.054688 158.539062 C 212.789062 158.753906 211.761719 159.703125 211.445312 160.941406 C 210.851562 163.296875 209.902344 165.574219 208.597656 167.699219 C 207.929688 168.8125 207.980469 170.21875 208.738281 171.269531 L 213.914062 178.570312 L 210.914062 181.542969 L 203.5625 176.332031 C 202.511719 175.582031 201.132812 175.53125 200.03125 176.191406 C 197.878906 177.46875 195.601562 178.378906 193.234375 178.960938 C 191.96875 179.265625 191.019531 180.292969 190.804688 181.570312 L 189.3125 190.402344 L 185.085938 190.363281 L 183.59375 181.507812 C 183.375 180.242188 182.429688 179.214844 181.164062 178.914062 C 178.820312 178.328125 176.519531 177.367188 174.367188 176.078125 C 173.277344 175.417969 171.898438 175.457031 170.847656 176.191406 L 163.46875 181.277344 L 160.484375 178.253906 L 165.683594 171.066406 C 166.445312 170.015625 166.507812 168.609375 165.835938 167.496094 C 164.558594 165.332031 163.621094 163.03125 163.039062 160.652344 C 162.734375 159.410156 161.738281 158.460938 160.472656 158.222656 L 151.714844 156.640625 L 151.75 152.386719 L 160.472656 150.980469 C 161.75 150.78125 162.785156 149.832031 163.101562 148.578125 C 163.710938 146.1875 164.660156 143.882812 165.976562 141.730469 C 166.648438 140.644531 166.609375 139.25 165.875 138.199219 L 160.851562 130.910156 L 163.863281 127.925781 L 171.027344 133.085938 C 172.0625 133.847656 173.457031 133.910156 174.570312 133.265625 C 176.746094 131.960938 179.0625 131.039062 181.453125 130.457031 C 182.707031 130.164062 183.65625 129.152344 183.882812 127.898438 Z M 187.300781 138.695312 C 183.136719 138.667969 178.960938 140.226562 175.785156 143.375 C 169.429688 149.652344 169.378906 159.992188 175.65625 166.359375 C 181.933594 172.710938 192.285156 172.761719 198.640625 166.484375 C 204.992188 160.207031 205.042969 149.855469 198.765625 143.503906 C 195.628906 140.328125 191.464844 138.71875 187.300781 138.695312 Z M 187.273438 145.136719 C 189.769531 145.148438 192.25 146.121094 194.160156 148.058594 C 197.980469 151.917969 197.941406 158.054688 194.082031 161.867188 C 190.222656 165.6875 184.085938 165.660156 180.265625 161.800781 C 176.441406 157.929688 176.480469 151.792969 180.339844 147.984375 C 182.277344 146.070312 184.769531 145.121094 187.273438 145.136719 Z M 153.066406 196.894531 C 144.613281 196.894531 140.714844 198.921875 136.515625 200.539062 C 136.515625 200.550781 136.515625 200.550781 136.515625 200.550781 C 128.453125 203.691406 114.660156 210.195312 114.660156 210.195312 C 113.039062 210.957031 112.34375 212.890625 113.101562 214.511719 C 113.875 216.132812 115.8125 216.828125 117.429688 216.066406 C 117.429688 216.066406 131.3125 209.523438 138.855469 206.589844 C 143.511719 204.78125 145.539062 203.375 153.066406 203.375 C 169.683594 203.375 169.011719 210.589844 176.023438 214.714844 C 176.125 214.777344 176.238281 214.839844 176.351562 214.878906 C 185.046875 218.777344 194.386719 219.574219 201.917969 219.574219 C 205.246094 219.574219 207.347656 220.34375 208.484375 221.207031 C 209.609375 222.078125 210.015625 222.976562 210.015625 224.433594 C 210.015625 226.140625 209.585938 226.953125 208.460938 227.773438 C 207.347656 228.582031 205.195312 229.292969 201.917969 229.292969 L 184.90625 229.292969 C 177.769531 229.292969 165.480469 226.152344 165.480469 226.152344 C 164.367188 225.851562 163.167969 226.179688 162.34375 227.003906 C 161.519531 227.824219 161.203125 229.027344 161.507812 230.140625 C 161.824219 231.265625 162.710938 232.140625 163.835938 232.429688 C 163.835938 232.429688 176.023438 235.773438 184.90625 235.773438 L 201.917969 235.773438 C 205.21875 235.773438 208.09375 235.226562 210.496094 234.039062 C 210.8125 233.949219 211.117188 233.8125 211.382812 233.621094 L 242.109375 213.460938 C 246.730469 210.789062 249.878906 210.042969 251.726562 210.070312 C 253.574219 210.105469 254.207031 210.664062 254.765625 211.371094 C 255.585938 212.4375 255.636719 212.839844 255.105469 214.070312 C 254.5625 215.308594 252.980469 217.21875 250.132812 219.195312 C 250.132812 219.195312 250.132812 219.195312 250.121094 219.195312 C 246.601562 221.648438 207.257812 247.289062 202.714844 249.871094 C 199.285156 251.820312 196.5625 253.867188 193.464844 254.742188 C 190.363281 255.601562 186.707031 255.601562 180.65625 252.71875 C 176.617188 250.78125 159.433594 241.972656 153.863281 239.152344 C 150.765625 237.582031 148.121094 236.695312 145.425781 236.847656 C 142.714844 237 140.425781 238.152344 138.058594 239.644531 C 138.046875 239.644531 138.03125 239.65625 138.03125 239.671875 L 130.011719 244.796875 C 128.996094 245.402344 128.402344 246.515625 128.441406 247.691406 C 128.476562 248.871094 129.160156 249.933594 130.210938 250.464844 C 131.273438 250.996094 132.527344 250.921875 133.503906 250.25 L 141.488281 245.136719 C 143.550781 243.847656 144.714844 243.378906 145.777344 243.316406 C 146.839844 243.25 148.296875 243.59375 150.941406 244.933594 C 156.460938 247.730469 173.378906 256.414062 177.871094 258.550781 C 184.921875 261.929688 190.628906 262.246094 195.195312 260.980469 C 199.765625 259.703125 203.019531 257.148438 205.914062 255.5 C 212.167969 251.945312 249.3125 227.648438 253.828125 224.507812 C 257.257812 222.117188 259.777344 219.625 261.054688 216.636719 C 262.332031 213.652344 261.914062 210.007812 259.878906 207.398438 C 259.878906 207.398438 259.878906 207.398438 259.878906 207.386719 C 258.269531 205.335938 255.421875 203.664062 251.839844 203.589844 C 249.804688 203.550781 247.539062 204.019531 245.019531 204.945312 C 244.550781 204.324219 243.84375 203.515625 242.871094 202.804688 C 240.984375 201.402344 237.984375 200.136719 233.910156 200.136719 C 231.820312 200.136719 230.113281 200.617188 228.746094 201.183594 C 226.796875 199.324219 223.34375 196.957031 218.316406 196.957031 C 214.242188 196.957031 210.421875 198.324219 207.761719 199.894531 C 207.269531 200.1875 206.082031 200.933594 204.054688 202.199219 C 202.03125 203.464844 199.386719 205.097656 196.777344 206.726562 C 192.617188 209.324219 190.035156 210.941406 188.539062 211.878906 C 185.363281 211.246094 182.1875 210.347656 179.1875 209.03125 C 176.632812 207.386719 171.707031 196.894531 153.066406 196.894531 Z M 218.316406 203.4375 C 220.367188 203.4375 221.835938 203.957031 222.875 204.5625 L 207.890625 213.851562 C 206.105469 213.347656 204.105469 213.09375 201.917969 213.09375 C 200.980469 213.09375 199.957031 213.03125 198.980469 212.992188 C 199.589844 212.613281 199.589844 212.613281 200.207031 212.234375 C 202.816406 210.601562 205.449219 208.957031 207.484375 207.691406 C 209.511719 206.4375 211.167969 205.414062 211.054688 205.476562 C 212.585938 204.5625 215.914062 203.4375 218.316406 203.4375 Z M 233.910156 206.613281 C 236.542969 206.613281 237.957031 207.285156 238.820312 207.878906 C 238.769531 207.90625 238.730469 207.929688 238.679688 207.96875 L 216.292969 222.648438 C 215.988281 220.839844 215.242188 219.105469 214.054688 217.664062 L 229.707031 207.957031 L 229.71875 207.929688 C 229.847656 207.867188 232.554688 206.613281 233.910156 206.613281 Z M 233.910156 206.613281 " fill-opacity="1" fill-rule="nonzero"/></g></svg>